<?xml version="1.0" standalone="no"?>
<!DOCTYPE svg PUBLIC "-//W3C//DTD SVG 20010904//EN"
 "http://www.w3.org/TR/2001/REC-SVG-20010904/DTD/svg10.dtd">
<svg version="1.0" xmlns="http://www.w3.org/2000/svg"
 width="700.000000pt" height="700.000000pt" viewBox="0 0 700.000000 700.000000"
 preserveAspectRatio="xMidYMid meet">
<g transform="translate(0.000000,700.000000) scale(0.100000,-0.100000)"
fill="#000000" stroke="none">
<path d="M3418 6735 c-2 -1 -52 -5 -113 -8 -92 -5 -192 -19 -300 -41 -50 -10
-197 -56 -260 -81 -106 -42 -312 -149 -360 -187 -5 -4 -47 -35 -92 -68 -160
-118 -331 -303 -449 -487 -58 -89 -164 -300 -164 -325 0 -8 -4 -18 -9 -23 -14
-15 -72 -217 -87 -300 -19 -109 -25 -168 -31 -275 -3 -69 -6 -126 -7 -127 -1
-1 -45 -5 -97 -7 -101 -5 -219 -21 -284 -38 -22 -5 -47 -11 -55 -13 -100 -19
-318 -119 -440 -201 -104 -70 -125 -88 -240 -204 -115 -115 -194 -224 -266
-366 -51 -101 -117 -281 -129 -355 -3 -19 -11 -61 -18 -94 -13 -67 -16 -350
-4 -435 82 -586 510 -1076 1084 -1241 143 -41 240 -51 486 -54 131 -1 242 -6
247 -11 4 -5 15 -31 23 -59 73 -238 214 -472 405 -670 l68 -70 -1 -362 c0
-243 3 -363 10 -364 5 0 534 -2 1173 -2 739 -1 1166 2 1170 8 3 5 6 169 6 365
l1 356 88 95 c48 52 117 135 152 184 74 103 182 313 221 430 14 44 30 84 34
89 5 5 57 10 117 11 113 3 184 10 268 27 28 5 61 11 75 14 71 14 186 50 280
89 355 147 657 414 851 753 53 94 133 274 150 337 4 17 14 55 23 87 17 63 23
92 32 158 3 25 10 65 14 89 11 62 5 362 -9 451 -68 414 -266 771 -587 1058
-87 78 -264 194 -384 251 -95 46 -277 112 -347 126 -121 25 -193 36 -288 41
-60 4 -114 10 -118 14 -4 4 -10 19 -13 34 -14 81 -125 358 -166 418 -10 14
-18 29 -18 33 0 17 -135 209 -202 286 -72 84 -197 208 -241 238 -12 8 -28 21
-36 29 -27 26 -188 130 -271 175 -136 73 -324 143 -461 173 -100 21 -198 35
-279 40 -52 3 -107 7 -122 8 -15 2 -29 2 -30 1z m148 -419 c33 -3 69 -8 81
-10 11 -3 43 -8 70 -12 74 -10 248 -70 349 -119 257 -125 493 -343 635 -590
94 -163 161 -358 184 -540 3 -27 10 -79 15 -115 5 -36 10 -68 10 -72 0 -7 48
-3 149 12 87 12 330 9 416 -6 286 -51 533 -181 738 -390 170 -173 308 -434
352 -665 20 -105 27 -344 13 -439 -32 -208 -112 -416 -220 -573 -239 -345
-622 -560 -1035 -581 l-82 -4 1 71 c2 351 -125 733 -344 1029 -63 85 -225 253
-312 323 -213 172 -504 304 -771 350 -142 24 -162 25 -310 25 -161 0 -214 -5
-340 -30 -27 -6 -61 -12 -75 -15 -66 -13 -227 -72 -337 -125 -338 -162 -606
-418 -785 -751 -83 -155 -167 -408 -183 -554 -1 -5 -5 -39 -9 -75 -4 -36 -8
-105 -9 -155 l-2 -90 -170 0 c-229 1 -286 8 -425 52 -387 123 -673 453 -744
859 -23 130 -15 318 19 449 124 474 549 813 1030 819 132 1 190 -6 379 -48 88
-20 163 -36 168 -36 5 0 7 12 4 28 -3 15 -8 41 -10 57 -10 67 -16 101 -21 125
-2 13 -7 40 -10 60 -3 20 -8 47 -11 60 -12 52 -12 346 1 425 20 125 22 134 61
250 80 244 231 473 419 637 203 177 460 304 695 344 14 2 34 6 46 9 11 2 54 7
95 11 41 3 75 7 76 7 4 4 146 -1 199 -7z m73 -2721 c213 -19 435 -101 620
-228 92 -63 249 -217 320 -312 68 -93 164 -288 196 -399 25 -89 29 -106 45
-201 11 -65 11 -297 0 -355 -5 -25 -11 -65 -15 -89 -11 -78 -73 -251 -126
-351 -85 -163 -213 -316 -365 -438 l-41 -33 1 -250 c1 -145 -3 -253 -8 -257
-5 -3 -58 -6 -118 -6 l-108 -1 -1 35 c0 19 -1 130 -1 246 l-1 210 -203 1
c-140 0 -204 -4 -205 -11 0 -6 0 -113 0 -238 1 -169 -2 -229 -11 -234 -7 -5
-63 -8 -125 -8 l-113 -1 0 246 0 246 -205 0 -205 -1 0 -243 c0 -187 -3 -243
-12 -244 -74 -6 -211 -2 -216 6 -4 6 -7 121 -7 256 l-1 247 -34 28 c-30 25
-109 95 -145 129 -34 32 -133 157 -170 216 -141 219 -209 462 -207 734 1 87 5
129 29 269 11 64 66 216 114 311 124 251 352 475 604 594 117 56 170 76 245
92 25 6 63 14 85 19 22 5 76 12 120 16 44 4 81 7 82 8 4 3 116 -2 182 -9z"/>
<path d="M2888 2506 c-80 -29 -132 -79 -160 -155 -91 -246 208 -454 404 -281
138 121 109 345 -55 423 -48 23 -143 29 -189 13z"/>
<path d="M3931 2493 c-124 -59 -179 -209 -123 -337 84 -188 356 -200 454 -20
70 130 29 276 -99 351 -65 38 -160 40 -232 6z"/>
</g>
</svg>
