<svg xmlns="http://www.w3.org/2000/svg" style="display:none">
  <symbol id="play" viewBox="0 0 256 256">
    <path fill="currentColor" d="M231.36 116.19L87.28 28.06a14 14 0 0 0-14.18-.27A13.69 13.69 0 0 0 66 39.87v176.26a13.69 13.69 0 0 0 7.1 12.08a14 14 0 0 0 14.18-.27l144.08-88.13a13.82 13.82 0 0 0 0-23.62m-6.26 13.38L81 217.7a2 2 0 0 1-2.06 0a1.78 1.78 0 0 1-1-1.61V39.87a1.78 1.78 0 0 1 1-1.61A2.06 2.06 0 0 1 80 38a2 2 0 0 1 1 .31l144.1 88.12a1.82 1.82 0 0 1 0 3.14"/>
  </symbol>
  <symbol id="instagram" viewBox="0 0 256 256">
    <path fill="currentColor" d="M128 82a46 46 0 1 0 46 46a46.06 46.06 0 0 0-46-46m0 80a34 34 0 1 1 34-34a34 34 0 0 1-34 34m48-136H80a54.06 54.06 0 0 0-54 54v96a54.06 54.06 0 0 0 54 54h96a54.06 54.06 0 0 0 54-54V80a54.06 54.06 0 0 0-54-54m42 150a42 42 0 0 1-42 42H80a42 42 0 0 1-42-42V80a42 42 0 0 1 42-42h96a42 42 0 0 1 42 42ZM190 76a10 10 0 1 1-10-10a10 10 0 0 1 10 10"/>
  </symbol>
  <symbol id="gumroad" viewBox="0 0 24 24">
    <path fill="currentColor" d="M4 13v8h7v-8zm8 0v8h7v-8zm8 0v9H3v-9H2V7h3.04L5 6.5A3.5 3.5 0 0 1 8.5 3c1.27 0 2.39.68 3 1.7c.61-1.02 1.73-1.7 3-1.7A3.5 3.5 0 0 1 18 6.5l-.04.5H21v6zM3 8v4h8V8zm17 4V8h-8v4zm-3.05-5l.05-.5A2.5 2.5 0 0 0 14.5 4A2.5 2.5 0 0 0 12 6.5V7zM11 7v-.5A2.5 2.5 0 0 0 8.5 4A2.5 2.5 0 0 0 6 6.5l.05.5z"/>
  </symbol>
</svg>
